<svg width="400" height="400" xmlns="http://www.w3.org/2000/svg"><defs><marker id="arrow" viewBox="0 -5 10 10" refX="5" refY="0" markerWidth="4" markerHeight="4" orient="auto" fill="#404040"><path d="M0,-4L10,0L0,4" class="arrowHead"></path></marker><marker id="arrow_green" viewBox="0 -5 10 10" refX="5" refY="0" markerWidth="4" markerHeight="4" orient="auto" fill="#66ff66"><path d="M0,-4L10,0L0,4" class="arrowHead"></path></marker></defs><g class="cells" transform="translate(300, 100)"><rect y="-100" width="100" height="100" style="stroke: grey; fill: white;"></rect><rect y="-70" x="30" width="40" height="40" style="stroke: #66ff66; stroke-width: 4; fill: #00cc00;"></rect><text x="50" y="-50" alignment-baseline="middle" font-size="16" stroke-width="0" stroke="#fff" fill="white" text-anchor="middle">0</text></g><g class="cells" transform="translate(200, 100)"><rect y="-100" width="100" height="100" style="stroke: grey; fill: white;"></rect><rect y="-70" x="30" width="40" height="40" style="stroke: #404040; stroke-width: 4; fill: #0000ff;"></rect><text x="50" y="-50" alignment-baseline="middle" font-size="16" stroke-width="0" stroke="#fff" fill="white" text-anchor="middle">1</text></g><g class="cells" transform="translate(100, 100)"><rect y="-100" width="100" height="100" style="stroke: grey; fill: white;"></rect><rect y="-70" x="30" width="40" height="40" style="stroke: #404040; stroke-width: 4; fill: #0000ff;"></rect><text x="50" y="-50" alignment-baseline="middle" font-size="16" stroke-width="0" stroke="#fff" fill="white" text-anchor="middle">2</text></g><g class="cells" transform="translate(0, 100)"><rect y="-100" width="100" height="100" style="stroke: grey; fill: white;"></rect><rect y="-70" x="30" width="40" height="40" style="stroke: #404040; stroke-width: 4; fill: #0000ff;"></rect><text x="50" y="-50" alignment-baseline="middle" font-size="16" stroke-width="0" stroke="#fff" fill="white" text-anchor="middle">3</text></g><g class="cells" transform="translate(300, 200)"><rect y="-100" width="100" height="100" style="stroke: grey; fill: white;"></rect><rect y="-70" x="30" width="40" height="40" style="stroke: #404040; stroke-width: 4; fill: #0000ff;"></rect><text x="50" y="-50" alignment-baseline="middle" font-size="16" stroke-width="0" stroke="#fff" fill="white" text-anchor="middle">4</text></g><g class="cells" transform="translate(200, 200)"><rect y="-100" width="100" height="100" style="stroke: grey; fill: white;"></rect><rect y="-70" x="30" width="40" height="40" style="stroke: #404040; stroke-width: 4; fill: #0000ff;"></rect><text x="50" y="-50" alignment-baseline="middle" font-size="16" stroke-width="0" stroke="#fff" fill="white" text-anchor="middle">5</text></g><g class="cells" transform="translate(100, 200)"><rect y="-100" width="100" height="100" style="stroke: grey; fill: white;"></rect><rect y="-70" x="30" width="40" height="40" style="stroke: #404040; stroke-width: 4; fill: #0000ff;"></rect><text x="50" y="-50" alignment-baseline="middle" font-size="16" stroke-width="0" stroke="#fff" fill="white" text-anchor="middle">6</text></g><g class="cells" transform="translate(0, 200)"><rect y="-100" width="100" height="100" style="stroke: grey; fill: white;"></rect><rect y="-70" x="30" width="40" height="40" style="stroke: #404040; stroke-width: 4; fill: #0000ff;"></rect><text x="50" y="-50" alignment-baseline="middle" font-size="16" stroke-width="0" stroke="#fff" fill="white" text-anchor="middle">7</text></g><g class="cells" transform="translate(300, 300)"><rect y="-100" width="100" height="100" style="stroke: grey; fill: white;"></rect><rect y="-70" x="30" width="40" height="40" style="stroke: #404040; stroke-width: 4; fill: #0000ff;"></rect><text x="50" y="-50" alignment-baseline="middle" font-size="16" stroke-width="0" stroke="#fff" fill="white" text-anchor="middle">8</text></g><g class="cells" transform="translate(200, 300)"><rect y="-100" width="100" height="100" style="stroke: grey; fill: white;"></rect><rect y="-70" x="30" width="40" height="40" style="stroke: #404040; stroke-width: 4; fill: #0000ff;"></rect><text x="50" y="-50" alignment-baseline="middle" font-size="16" stroke-width="0" stroke="#fff" fill="white" text-anchor="middle">9</text></g><g class="cells" transform="translate(100, 300)"><rect y="-100" width="100" height="100" style="stroke: grey; fill: white;"></rect><rect y="-70" x="30" width="40" height="40" style="stroke: #404040; stroke-width: 4; fill: #0000ff;"></rect><text x="50" y="-50" alignment-baseline="middle" font-size="16" stroke-width="0" stroke="#fff" fill="white" text-anchor="middle">10</text></g><g class="cells" transform="translate(0, 300)"><rect y="-100" width="100" height="100" style="stroke: grey; fill: white;"></rect><rect y="-70" x="30" width="40" height="40" style="stroke: #404040; stroke-width: 4; fill: #0000ff;"></rect><text x="50" y="-50" alignment-baseline="middle" font-size="16" stroke-width="0" stroke="#fff" fill="white" text-anchor="middle">11</text></g><g class="cells" transform="translate(300, 400)"><rect y="-100" width="100" height="100" style="stroke: grey; fill: white;"></rect><rect y="-70" x="30" width="40" height="40" style="stroke: #404040; stroke-width: 4; fill: #0000ff;"></rect><text x="50" y="-50" alignment-baseline="middle" font-size="16" stroke-width="0" stroke="#fff" fill="white" text-anchor="middle">12</text></g><g class="cells" transform="translate(200, 400)"><rect y="-100" width="100" height="100" style="stroke: grey; fill: white;"></rect><rect y="-70" x="30" width="40" height="40" style="stroke: #404040; stroke-width: 4; fill: #0000ff;"></rect><text x="50" y="-50" alignment-baseline="middle" font-size="16" stroke-width="0" stroke="#fff" fill="white" text-anchor="middle">13</text></g><g class="cells" transform="translate(100, 400)"><rect y="-100" width="100" height="100" style="stroke: grey; fill: white;"></rect><rect y="-70" x="30" width="40" height="40" style="stroke: #404040; stroke-width: 4; fill: #0000ff;"></rect><text x="50" y="-50" alignment-baseline="middle" font-size="16" stroke-width="0" stroke="#fff" fill="white" text-anchor="middle">14</text></g><g class="cells" transform="translate(0, 400)"><rect y="-100" width="100" height="100" style="stroke: grey; fill: white;"></rect><rect y="-70" x="30" width="40" height="40" style="stroke: #404040; stroke-width: 4; fill: #0000ff;"></rect><text x="50" y="-50" alignment-baseline="middle" font-size="16" stroke-width="0" stroke="#fff" fill="white" text-anchor="middle">15</text></g><g class="arrows"><path d="M330,50L280,50" marker-end="url(#arrow_green)" style="stroke: #66ff66; stroke-width: 4; fill: none;"></path></g><g class="arrows"><path d="M230,50L180,50" marker-end="url(#arrow)" style="stroke: #404040; stroke-width: 4; fill: none;"></path></g><g class="arrows"><path d="M130,50L80,50" marker-end="url(#arrow)" style="stroke: #404040; stroke-width: 4; fill: none;"></path></g><g class="arrows"><path d="M68.97366596101028,56.324555320336756L321.5395010584846,140.51316701949486" marker-end="url(#arrow)" style="stroke: #404040; stroke-dasharray: 4 4; stroke-width: 4; fill: none;"></path></g><g class="arrows"><path d="M330,150L280,150" marker-end="url(#arrow)" style="stroke: #404040; stroke-width: 4; fill: none;"></path></g><g class="arrows"><path d="M230,150L180,150" marker-end="url(#arrow)" style="stroke: #404040; stroke-width: 4; fill: none;"></path></g><g class="arrows"><path d="M130,150L80,150" marker-end="url(#arrow)" style="stroke: #404040; stroke-width: 4; fill: none;"></path></g><g class="arrows"><path d="M68.97366596101028,156.32455532033677L321.5395010584846,240.51316701949486" marker-end="url(#arrow)" style="stroke: #404040; stroke-dasharray: 4 4; stroke-width: 4; fill: none;"></path></g><g class="arrows"><path d="M330,250L280,250" marker-end="url(#arrow)" style="stroke: #404040; stroke-width: 4; fill: none;"></path></g><g class="arrows"><path d="M230,250L180,250" marker-end="url(#arrow)" style="stroke: #404040; stroke-width: 4; fill: none;"></path></g><g class="arrows"><path d="M130,250L80,250" marker-end="url(#arrow)" style="stroke: #404040; stroke-width: 4; fill: none;"></path></g><g class="arrows"><path d="M68.97366596101028,256.32455532033674L321.5395010584846,340.51316701949486" marker-end="url(#arrow)" style="stroke: #404040; stroke-dasharray: 4 4; stroke-width: 4; fill: none;"></path></g><g class="arrows"><path d="M330,350L280,350" marker-end="url(#arrow)" style="stroke: #404040; stroke-width: 4; fill: none;"></path></g><g class="arrows"><path d="M230,350L180,350" marker-end="url(#arrow)" style="stroke: #404040; stroke-width: 4; fill: none;"></path></g><g class="arrows"><path d="M130,350L80,350" marker-end="url(#arrow)" style="stroke: #404040; stroke-width: 4; fill: none;"></path></g></svg>