<svg width="400" height="400" xmlns="http://www.w3.org/2000/svg"><g class="cells" transform="translate(300, 100)"><rect y="-100" width="100" height="100" style="stroke: grey; fill: white;"></rect><rect y="-70" x="30" width="40" height="40" style="stroke: grey; fill: orange;"></rect><text x="50" y="-50" alignment-baseline="middle" font-size="12" stroke-width="0" stroke="#000" text-anchor="middle">0</text></g><g class="cells" transform="translate(200, 100)"><rect y="-100" width="100" height="100" style="stroke: grey; fill: white;"></rect><rect y="-70" x="30" width="40" height="40" style="stroke: grey; fill: orange;"></rect><text x="50" y="-50" alignment-baseline="middle" font-size="12" stroke-width="0" stroke="#000" text-anchor="middle">1</text></g><g class="cells" transform="translate(100, 100)"><rect y="-100" width="100" height="100" style="stroke: grey; fill: white;"></rect><rect y="-70" x="30" width="40" height="40" style="stroke: grey; fill: orange;"></rect><text x="50" y="-50" alignment-baseline="middle" font-size="12" stroke-width="0" stroke="#000" text-anchor="middle">2</text></g><g class="cells" transform="translate(0, 100)"><rect y="-100" width="100" height="100" style="stroke: grey; fill: white;"></rect><rect y="-70" x="30" width="40" height="40" style="stroke: grey; fill: orange;"></rect><text x="50" y="-50" alignment-baseline="middle" font-size="12" stroke-width="0" stroke="#000" text-anchor="middle">3</text></g><g class="cells" transform="translate(0, 200)"><rect y="-100" width="100" height="100" style="stroke: grey; fill: white;"></rect><rect y="-70" x="30" width="40" height="40" style="stroke: grey; fill: orange;"></rect><text x="50" y="-50" alignment-baseline="middle" font-size="12" stroke-width="0" stroke="#000" text-anchor="middle">4</text></g><g class="cells" transform="translate(100, 200)"><rect y="-100" width="100" height="100" style="stroke: grey; fill: white;"></rect><rect y="-70" x="30" width="40" height="40" style="stroke: grey; fill: orange;"></rect><text x="50" y="-50" alignment-baseline="middle" font-size="12" stroke-width="0" stroke="#000" text-anchor="middle">5</text></g><g class="cells" transform="translate(200, 200)"><rect y="-100" width="100" height="100" style="stroke: grey; fill: white;"></rect><rect y="-70" x="30" width="40" height="40" style="stroke: grey; fill: orange;"></rect><text x="50" y="-50" alignment-baseline="middle" font-size="12" stroke-width="0" stroke="#000" text-anchor="middle">6</text></g><g class="cells" transform="translate(300, 200)"><rect y="-100" width="100" height="100" style="stroke: grey; fill: white;"></rect><rect y="-70" x="30" width="40" height="40" style="stroke: grey; fill: orange;"></rect><text x="50" y="-50" alignment-baseline="middle" font-size="12" stroke-width="0" stroke="#000" text-anchor="middle">7</text></g><g class="cells" transform="translate(300, 300)"><rect y="-100" width="100" height="100" style="stroke: grey; fill: white;"></rect><rect y="-70" x="30" width="40" height="40" style="stroke: grey; fill: orange;"></rect><text x="50" y="-50" alignment-baseline="middle" font-size="12" stroke-width="0" stroke="#000" text-anchor="middle">8</text></g><g class="cells" transform="translate(200, 300)"><rect y="-100" width="100" height="100" style="stroke: grey; fill: white;"></rect><rect y="-70" x="30" width="40" height="40" style="stroke: grey; fill: orange;"></rect><text x="50" y="-50" alignment-baseline="middle" font-size="12" stroke-width="0" stroke="#000" text-anchor="middle">9</text></g><g class="cells" transform="translate(100, 300)"><rect y="-100" width="100" height="100" style="stroke: grey; fill: white;"></rect><rect y="-70" x="30" width="40" height="40" style="stroke: grey; fill: orange;"></rect><text x="50" y="-50" alignment-baseline="middle" font-size="12" stroke-width="0" stroke="#000" text-anchor="middle">10</text></g><g class="cells" transform="translate(0, 300)"><rect y="-100" width="100" height="100" style="stroke: grey; fill: white;"></rect><rect y="-70" x="30" width="40" height="40" style="stroke: grey; fill: orange;"></rect><text x="50" y="-50" alignment-baseline="middle" font-size="12" stroke-width="0" stroke="#000" text-anchor="middle">11</text></g><g class="cells" transform="translate(0, 400)"><rect y="-100" width="100" height="100" style="stroke: grey; fill: white;"></rect><rect y="-70" x="30" width="40" height="40" style="stroke: grey; fill: orange;"></rect><text x="50" y="-50" alignment-baseline="middle" font-size="12" stroke-width="0" stroke="#000" text-anchor="middle">12</text></g><g class="cells" transform="translate(100, 400)"><rect y="-100" width="100" height="100" style="stroke: grey; fill: white;"></rect><rect y="-70" x="30" width="40" height="40" style="stroke: grey; fill: orange;"></rect><text x="50" y="-50" alignment-baseline="middle" font-size="12" stroke-width="0" stroke="#000" text-anchor="middle">13</text></g><g class="cells" transform="translate(200, 400)"><rect y="-100" width="100" height="100" style="stroke: grey; fill: white;"></rect><rect y="-70" x="30" width="40" height="40" style="stroke: grey; fill: orange;"></rect><text x="50" y="-50" alignment-baseline="middle" font-size="12" stroke-width="0" stroke="#000" text-anchor="middle">14</text></g><g class="cells" transform="translate(300, 400)"><rect y="-100" width="100" height="100" style="stroke: grey; fill: white;"></rect><rect y="-70" x="30" width="40" height="40" style="stroke: grey; fill: orange;"></rect><text x="50" y="-50" alignment-baseline="middle" font-size="12" stroke-width="0" stroke="#000" text-anchor="middle">15</text></g><g class="arrows"><path d="M350,50L250,50" style="stroke: black; fill: none;"></path></g><g class="arrows"><path d="M250,50L150,50" style="stroke: black; fill: none;"></path></g><g class="arrows"><path d="M150,50L50,50" style="stroke: black; fill: none;"></path></g><g class="arrows"><path d="M50,50L50,150" style="stroke: black; fill: none;"></path></g><g class="arrows"><path d="M50,150L150,150" style="stroke: black; fill: none;"></path></g><g class="arrows"><path d="M150,150L250,150" style="stroke: black; fill: none;"></path></g><g class="arrows"><path d="M250,150L350,150" style="stroke: black; fill: none;"></path></g><g class="arrows"><path d="M350,150L350,250" style="stroke: black; fill: none;"></path></g><g class="arrows"><path d="M350,250L250,250" style="stroke: black; fill: none;"></path></g><g class="arrows"><path d="M250,250L150,250" style="stroke: black; fill: none;"></path></g><g class="arrows"><path d="M150,250L50,250" style="stroke: black; fill: none;"></path></g><g class="arrows"><path d="M50,250L50,350" style="stroke: black; fill: none;"></path></g><g class="arrows"><path d="M50,350L150,350" style="stroke: black; fill: none;"></path></g><g class="arrows"><path d="M150,350L250,350" style="stroke: black; fill: none;"></path></g><g class="arrows"><path d="M250,350L350,350" style="stroke: black; fill: none;"></path></g></svg>