<svg width="400" height="400" xmlns="http://www.w3.org/2000/svg"><g class="cells" transform="translate(0, 100)"><rect y="-100" width="100" height="100" style="stroke: grey; fill: white;"></rect><rect y="-70" x="30" width="40" height="40" style="stroke: grey; fill: orange;"></rect><text x="50" y="-50" alignment-baseline="middle" font-size="12" stroke-width="0" stroke="#000" text-anchor="middle">0</text></g><g class="cells" transform="translate(100, 100)"><rect y="-100" width="100" height="100" style="stroke: grey; fill: white;"></rect><rect y="-70" x="30" width="40" height="40" style="stroke: grey; fill: orange;"></rect><text x="50" y="-50" alignment-baseline="middle" font-size="12" stroke-width="0" stroke="#000" text-anchor="middle">1</text></g><g class="cells" transform="translate(200, 100)"><rect y="-100" width="100" height="100" style="stroke: grey; fill: white;"></rect><rect y="-70" x="30" width="40" height="40" style="stroke: grey; fill: orange;"></rect><text x="50" y="-50" alignment-baseline="middle" font-size="12" stroke-width="0" stroke="#000" text-anchor="middle">2</text></g><g class="cells" transform="translate(300, 100)"><rect y="-100" width="100" height="100" style="stroke: grey; fill: white;"></rect><rect y="-70" x="30" width="40" height="40" style="stroke: grey; fill: orange;"></rect><text x="50" y="-50" alignment-baseline="middle" font-size="12" stroke-width="0" stroke="#000" text-anchor="middle">3</text></g><g class="cells" transform="translate(300, 200)"><rect y="-100" width="100" height="100" style="stroke: grey; fill: white;"></rect><rect y="-70" x="30" width="40" height="40" style="stroke: grey; fill: orange;"></rect><text x="50" y="-50" alignment-baseline="middle" font-size="12" stroke-width="0" stroke="#000" text-anchor="middle">4</text></g><g class="cells" transform="translate(200, 200)"><rect y="-100" width="100" height="100" style="stroke: grey; fill: white;"></rect><rect y="-70" x="30" width="40" height="40" style="stroke: grey; fill: orange;"></rect><text x="50" y="-50" alignment-baseline="middle" font-size="12" stroke-width="0" stroke="#000" text-anchor="middle">5</text></g><g class="cells" transform="translate(100, 200)"><rect y="-100" width="100" height="100" style="stroke: grey; fill: white;"></rect><rect y="-70" x="30" width="40" height="40" style="stroke: grey; fill: orange;"></rect><text x="50" y="-50" alignment-baseline="middle" font-size="12" stroke-width="0" stroke="#000" text-anchor="middle">6</text></g><g class="cells" transform="translate(0, 200)"><rect y="-100" width="100" height="100" style="stroke: grey; fill: white;"></rect><rect y="-70" x="30" width="40" height="40" style="stroke: grey; fill: orange;"></rect><text x="50" y="-50" alignment-baseline="middle" font-size="12" stroke-width="0" stroke="#000" text-anchor="middle">7</text></g><g class="cells" transform="translate(0, 300)"><rect y="-100" width="100" height="100" style="stroke: grey; fill: white;"></rect><rect y="-70" x="30" width="40" height="40" style="stroke: grey; fill: orange;"></rect><text x="50" y="-50" alignment-baseline="middle" font-size="12" stroke-width="0" stroke="#000" text-anchor="middle">8</text></g><g class="cells" transform="translate(100, 300)"><rect y="-100" width="100" height="100" style="stroke: grey; fill: white;"></rect><rect y="-70" x="30" width="40" height="40" style="stroke: grey; fill: orange;"></rect><text x="50" y="-50" alignment-baseline="middle" font-size="12" stroke-width="0" stroke="#000" text-anchor="middle">9</text></g></svg>
