<svg width="400" height="400" xmlns="http://www.w3.org/2000/svg"><defs><marker id="arrow" viewBox="0 -5 10 10" refX="5" refY="0" markerWidth="4" markerHeight="4" orient="auto" fill="#404040"><path d="M0,-4L10,0L0,4" class="arrowHead"></path></marker></defs><g class="cells" transform="translate(300, 400)"><rect y="-100" width="100" height="100" style="stroke: grey; fill: white;"></rect><rect y="-70" x="30" width="40" height="40" style="stroke: #404040; stroke-width: 4; fill: #0000ff;"></rect><text x="50" y="-50" alignment-baseline="middle" font-size="16" stroke-width="0" stroke="#fff" fill="white" text-anchor="middle">0</text></g><g class="cells" transform="translate(300, 300)"><rect y="-100" width="100" height="100" style="stroke: grey; fill: white;"></rect><rect y="-70" x="30" width="40" height="40" style="stroke: #404040; stroke-width: 4; fill: #0000ff;"></rect><text x="50" y="-50" alignment-baseline="middle" font-size="16" stroke-width="0" stroke="#fff" fill="white" text-anchor="middle">1</text></g><g class="cells" transform="translate(300, 200)"><rect y="-100" width="100" height="100" style="stroke: grey; fill: white;"></rect><rect y="-70" x="30" width="40" height="40" style="stroke: #404040; stroke-width: 4; fill: #0000ff;"></rect><text x="50" y="-50" alignment-baseline="middle" font-size="16" stroke-width="0" stroke="#fff" fill="white" text-anchor="middle">2</text></g><g class="cells" transform="translate(300, 100)"><rect y="-100" width="100" height="100" style="stroke: grey; fill: white;"></rect><rect y="-70" x="30" width="40" height="40" style="stroke: #404040; stroke-width: 4; fill: #0000ff;"></rect><text x="50" y="-50" alignment-baseline="middle" font-size="16" stroke-width="0" stroke="#fff" fill="white" text-anchor="middle">3</text></g><g class="cells" transform="translate(200, 100)"><rect y="-100" width="100" height="100" style="stroke: grey; fill: white;"></rect><rect y="-70" x="30" width="40" height="40" style="stroke: #404040; stroke-width: 4; fill: #0000ff;"></rect><text x="50" y="-50" alignment-baseline="middle" font-size="16" stroke-width="0" stroke="#fff" fill="white" text-anchor="middle">4</text></g><g class="cells" transform="translate(200, 200)"><rect y="-100" width="100" height="100" style="stroke: grey; fill: white;"></rect><rect y="-70" x="30" width="40" height="40" style="stroke: #404040; stroke-width: 4; fill: #0000ff;"></rect><text x="50" y="-50" alignment-baseline="middle" font-size="16" stroke-width="0" stroke="#fff" fill="white" text-anchor="middle">5</text></g><g class="cells" transform="translate(200, 300)"><rect y="-100" width="100" height="100" style="stroke: grey; fill: white;"></rect><rect y="-70" x="30" width="40" height="40" style="stroke: #404040; stroke-width: 4; fill: #0000ff;"></rect><text x="50" y="-50" alignment-baseline="middle" font-size="16" stroke-width="0" stroke="#fff" fill="white" text-anchor="middle">6</text></g><g class="cells" transform="translate(200, 400)"><rect y="-100" width="100" height="100" style="stroke: grey; fill: white;"></rect><rect y="-70" x="30" width="40" height="40" style="stroke: #404040; stroke-width: 4; fill: #0000ff;"></rect><text x="50" y="-50" alignment-baseline="middle" font-size="16" stroke-width="0" stroke="#fff" fill="white" text-anchor="middle">7</text></g><g class="cells" transform="translate(100, 400)"><rect y="-100" width="100" height="100" style="stroke: grey; fill: white;"></rect><rect y="-70" x="30" width="40" height="40" style="stroke: #404040; stroke-width: 4; fill: #0000ff;"></rect><text x="50" y="-50" alignment-baseline="middle" font-size="16" stroke-width="0" stroke="#fff" fill="white" text-anchor="middle">8</text></g><g class="cells" transform="translate(100, 300)"><rect y="-100" width="100" height="100" style="stroke: grey; fill: white;"></rect><rect y="-70" x="30" width="40" height="40" style="stroke: #404040; stroke-width: 4; fill: #0000ff;"></rect><text x="50" y="-50" alignment-baseline="middle" font-size="16" stroke-width="0" stroke="#fff" fill="white" text-anchor="middle">9</text></g><g class="cells" transform="translate(100, 200)"><rect y="-100" width="100" height="100" style="stroke: grey; fill: white;"></rect><rect y="-70" x="30" width="40" height="40" style="stroke: #404040; stroke-width: 4; fill: #0000ff;"></rect><text x="50" y="-50" alignment-baseline="middle" font-size="16" stroke-width="0" stroke="#fff" fill="white" text-anchor="middle">10</text></g><g class="cells" transform="translate(100, 100)"><rect y="-100" width="100" height="100" style="stroke: grey; fill: white;"></rect><rect y="-70" x="30" width="40" height="40" style="stroke: #404040; stroke-width: 4; fill: #0000ff;"></rect><text x="50" y="-50" alignment-baseline="middle" font-size="16" stroke-width="0" stroke="#fff" fill="white" text-anchor="middle">11</text></g><g class="cells" transform="translate(0, 100)"><rect y="-100" width="100" height="100" style="stroke: grey; fill: white;"></rect><rect y="-70" x="30" width="40" height="40" style="stroke: #404040; stroke-width: 4; fill: #0000ff;"></rect><text x="50" y="-50" alignment-baseline="middle" font-size="16" stroke-width="0" stroke="#fff" fill="white" text-anchor="middle">12</text></g><g class="cells" transform="translate(0, 200)"><rect y="-100" width="100" height="100" style="stroke: grey; fill: white;"></rect><rect y="-70" x="30" width="40" height="40" style="stroke: #404040; stroke-width: 4; fill: #0000ff;"></rect><text x="50" y="-50" alignment-baseline="middle" font-size="16" stroke-width="0" stroke="#fff" fill="white" text-anchor="middle">13</text></g><g class="cells" transform="translate(0, 300)"><rect y="-100" width="100" height="100" style="stroke: grey; fill: white;"></rect><rect y="-70" x="30" width="40" height="40" style="stroke: #404040; stroke-width: 4; fill: #0000ff;"></rect><text x="50" y="-50" alignment-baseline="middle" font-size="16" stroke-width="0" stroke="#fff" fill="white" text-anchor="middle">14</text></g><g class="cells" transform="translate(0, 400)"><rect y="-100" width="100" height="100" style="stroke: grey; fill: white;"></rect><rect y="-70" x="30" width="40" height="40" style="stroke: #404040; stroke-width: 4; fill: #0000ff;"></rect><text x="50" y="-50" alignment-baseline="middle" font-size="16" stroke-width="0" stroke="#fff" fill="white" text-anchor="middle">15</text></g><g class="arrows"><path d="M350,330L350,280" marker-end="url(#arrow)" style="stroke: #404040; stroke-width: 4; fill: none;"></path></g><g class="arrows"><path d="M350,230L350,180" marker-end="url(#arrow)" style="stroke: #404040; stroke-width: 4; fill: none;"></path></g><g class="arrows"><path d="M350,130L350,80" marker-end="url(#arrow)" style="stroke: #404040; stroke-width: 4; fill: none;"></path></g><g class="arrows"><path d="M330,50L280,50" marker-end="url(#arrow)" style="stroke: #404040; stroke-width: 4; fill: none;"></path></g><g class="arrows"><path d="M250,70L250,120" marker-end="url(#arrow)" style="stroke: #404040; stroke-width: 4; fill: none;"></path></g><g class="arrows"><path d="M250,170L250,220" marker-end="url(#arrow)" style="stroke: #404040; stroke-width: 4; fill: none;"></path></g><g class="arrows"><path d="M250,270L250,320" marker-end="url(#arrow)" style="stroke: #404040; stroke-width: 4; fill: none;"></path></g><g class="arrows"><path d="M230,350L180,350" marker-end="url(#arrow)" style="stroke: #404040; stroke-width: 4; fill: none;"></path></g><g class="arrows"><path d="M150,330L150,280" marker-end="url(#arrow)" style="stroke: #404040; stroke-width: 4; fill: none;"></path></g><g class="arrows"><path d="M150,230L150,180" marker-end="url(#arrow)" style="stroke: #404040; stroke-width: 4; fill: none;"></path></g><g class="arrows"><path d="M150,130L150,80" marker-end="url(#arrow)" style="stroke: #404040; stroke-width: 4; fill: none;"></path></g><g class="arrows"><path d="M130,50L80,50" marker-end="url(#arrow)" style="stroke: #404040; stroke-width: 4; fill: none;"></path></g><g class="arrows"><path d="M50,70L50,120" marker-end="url(#arrow)" style="stroke: #404040; stroke-width: 4; fill: none;"></path></g><g class="arrows"><path d="M50,170L50,220" marker-end="url(#arrow)" style="stroke: #404040; stroke-width: 4; fill: none;"></path></g><g class="arrows"><path d="M50,270L50,320" marker-end="url(#arrow)" style="stroke: #404040; stroke-width: 4; fill: none;"></path></g></svg>